<svg xmlns="http://www.w3.org/2000/svg" width="150" height="30" viewBox="0 0 150 30">
    <g fill="#fcb41a">
        <path d="M12 0l3.09 6.26L22 7.27l-5 4.87L18.18 20 12 16.9 5.82 20 7 12.14 2 7.27l6.91-1.01z"/>
        <path transform="translate(30)" d="M12 0l3.09 6.26L22 7.27l-5 4.87L18.18 20 12 16.9 5.82 20 7 12.14 2 7.27l6.91-1.01z"/>
        <path transform="translate(60)" d="M12 0l3.09 6.26L22 7.27l-5 4.87L18.18 20 12 16.9 5.82 20 7 12.14 2 7.27l6.91-1.01z"/>
        <path transform="translate(90)" d="M12 0l3.09 6.26L22 7.27l-5 4.87L18.18 20 12 16.9 5.82 20 7 12.14 2 7.27l6.91-1.01z"/>
        <path transform="translate(120)" d="M12 0l3.09 6.26L22 7.27l-5 4.87L18.18 20 12 16.9 5.82 20 7 12.14 2 7.27l6.91-1.01z"/>
    </g>
</svg>
